<?xml version="1.0" encoding="UTF-8"?>
<svg id="Layer_2" data-name="Layer 2" xmlns="http://www.w3.org/2000/svg" viewBox="0 0 7119.07 1531.66">
  <defs>
    <style>
      .cls-1 {
        fill: #f9ffbf;
      }

      .cls-2 {
        fill: #7f6a65;
      }

      .cls-3, .cls-4 {
        fill: #c38b63;
      }

      .cls-5 {
        fill: #98a5a4;
      }

      .cls-6 {
        fill: #8e7570;
      }

      .cls-7 {
        fill: #a8ccca;
      }

      .cls-8 {
        fill: #0c005f;
      }

      .cls-9 {
        fill: #401409;
      }

      .cls-10 {
        fill: #964e26;
      }

      .cls-11 {
        fill: #95a09f;
      }

      .cls-12 {
        fill: #536cc4;
      }

      .cls-13 {
        fill: #49342e;
      }

      .cls-14 {
        fill: #2c190c;
      }

      .cls-15 {
        fill: #3c4c4a;
      }

      .cls-16 {
        fill: #604b45;
      }

      .cls-17 {
        fill: #75594e;
      }

      .cls-18 {
        fill: #768dcc;
      }

      .cls-19 {
        fill: #7a8c8b;
      }

      .cls-20 {
        fill: #51382d;
      }

      .cls-21 {
        stroke-width: 5px;
      }

      .cls-21, .cls-22, .cls-4, .cls-23 {
        stroke-miterlimit: 10;
      }

      .cls-21, .cls-23 {
        fill: none;
        stroke: #3c4c4a;
      }

      .cls-22 {
        fill: #e4c3a4;
      }

      .cls-22, .cls-4 {
        stroke: #964e26;
      }

      .cls-23 {
        stroke-width: 4px;
      }
    </style>
  </defs>
  <g id="Background">
    <rect class="cls-2" width="7119.07" height="1531.66"/>
    <rect class="cls-16" x="0" y="1148.44" width="7119.07" height="383.22"/>
    <rect class="cls-5" x="482.47" y="872.68" width="1974.64" height="435.89"/>
    <polygon class="cls-7" points="2457.12 872.68 482.47 872.68 533.55 808.95 2393.7 808.95 2457.12 872.68"/>
    <rect class="cls-7" x="2508.51" y="434.14" width="385.47" height="858.06" rx="84.94" ry="84.94"/>
    <rect class="cls-15" x="1995.78" y="872.68" width="384.29" height="435.89"/>
    <rect class="cls-7" x="2030.9" y="953.15" width="314.05" height="262.24" rx="50.55" ry="50.55"/>
    <rect class="cls-19" x="1995.78" y="1240.07" width="384.29" height="68.5"/>
    <polygon class="cls-19" points="2380.07 872.93 1995.78 872.93 2045.82 808.95 2332.21 808.95 2380.07 872.93"/>
    <rect class="cls-19" x="2028.1" y="903.97" width="319.31" height="17.14" rx="6.87" ry="6.87"/>
    <rect class="cls-19" x="904.27" y="887.19" width="363.91" height="412.78"/>
    <rect class="cls-7" x="926.57" y="915.39" width="319.31" height="17.14" rx="6.87" ry="6.87"/>
    <rect class="cls-18" x="1158.39" y="175.18" width="533.98" height="457.87"/>
    <g>
      <rect class="cls-20" x="2961.86" y="48.6" width="836.63" height="1258.85"/>
      <rect class="cls-17" x="2997.05" y="85.88" width="766.24" height="216.64"/>
      <rect class="cls-17" x="2997.05" y="330.23" width="766.24" height="216.64"/>
      <rect class="cls-17" x="2997.05" y="574.59" width="766.24" height="216.64"/>
      <rect class="cls-17" x="2997.05" y="818.94" width="766.24" height="216.64"/>
      <rect class="cls-17" x="2997.05" y="1063.3" width="766.24" height="216.64"/>
      <rect class="cls-16" x="2997.05" y="330.23" width="766.24" height="55.22"/>
      <rect class="cls-16" x="2997.05" y="1224.51" width="766.24" height="55.22"/>
      <rect class="cls-16" x="2997.05" y="574.59" width="766.24" height="28.83"/>
      <rect class="cls-13" x="2997.05" y="85.88" width="71.19" height="216.64"/>
      <polygon class="cls-13" points="3068.24 546.88 2997.05 546.88 2997.05 330.23 3068.24 385.45 3068.24 546.88"/>
      <polygon class="cls-13" points="3068.24 791.23 2997.05 791.23 2997.05 574.59 3068.24 603.41 3068.24 791.23"/>
      <rect class="cls-13" x="2997.05" y="818.94" width="71.19" height="216.64"/>
      <polygon class="cls-13" points="3763.29 791.23 3692.1 791.23 3692.1 603.41 3763.29 574.59 3763.29 791.23"/>
      <rect class="cls-13" x="3692.1" y="818.94" width="71.19" height="216.64"/>
      <polygon class="cls-13" points="3068.24 1224.51 2997.05 1279.94 2997.05 1063.3 3068.24 1063.3 3068.24 1224.51"/>
      <polygon class="cls-13" points="3763.29 1279.94 3692.1 1224.51 3692.1 1063.3 3763.29 1063.3 3763.29 1279.94"/>
      <rect class="cls-13" x="3692.1" y="85.88" width="71.19" height="216.64"/>
      <polygon class="cls-13" points="3763.29 546.88 3692.1 546.88 3692.1 385.45 3763.29 330.23 3763.29 546.88"/>
      <polygon class="cls-16" points="3692.1 153.69 3068.24 149.5 2997.05 85.88 3763.29 85.88 3692.1 153.69"/>
      <polygon class="cls-16" points="3763.29 1035.48 2997.05 1035.48 3068.24 1001.99 3692.1 1001.99 3763.29 1035.48"/>
      <polygon class="cls-16" points="3763.29 791.23 2997.05 791.23 3068.24 774.49 3692.1 774.49 3763.29 791.23"/>
    </g>
    <rect class="cls-19" x="1356.99" y="766.46" width="42.49" height="42.49" rx="15.59" ry="15.59"/>
    <rect class="cls-19" x="1481.45" y="766.46" width="42.49" height="42.49" rx="15.59" ry="15.59"/>
    <rect class="cls-19" x="1944.3" y="32.26" width="42.49" height="42.49" rx="15.59" ry="15.59"/>
    <rect class="cls-19" x="882.77" y="32.26" width="42.49" height="42.49" rx="15.59" ry="15.59"/>
    <ellipse class="cls-15" cx="2095.26" cy="859.43" rx="64.36" ry="6.42"/>
    <ellipse class="cls-15" cx="2283.22" cy="859.43" rx="64.36" ry="6.42"/>
    <g>
      <ellipse class="cls-15" cx="2261.97" cy="821.88" rx="59.65" ry="4.28"/>
      <ellipse class="cls-15" cx="2113.55" cy="821.88" rx="59.65" ry="4.28"/>
    </g>
    <ellipse class="cls-15" cx="2187.76" cy="839.63" rx="64.36" ry="4.82"/>
    <path class="cls-12" d="M1583.52,863.74h-277.47c-7.84,0-13.09-8.07-9.9-15.24l11.2-25.18c1.74-3.91,5.62-6.43,9.9-6.43h252.77c3.99,0,7.66,2.19,9.55,5.71l13.51,25.18c3.87,7.22-1.36,15.95-9.55,15.95Z"/>
    <rect class="cls-5" x="925.26" y="39" width="1019.04" height="29.02" rx="14.51" ry="14.51"/>
    <rect class="cls-7" x="1735.91" width="128.36" height="787.7"/>
    <rect class="cls-7" x="978.6" width="124.35" height="787.7"/>
    <rect class="cls-15" x="2045.94" y="781.34" width="286.27" height="27.61"/>
    <rect class="cls-11" x="1131.89" y="622.29" width="586.97" height="21.07"/>
    <rect class="cls-19" x="1152.45" y="643.48" width="545.84" height="19.6"/>
    <rect class="cls-19" x="1418.48" y="750.75" width="43.8" height="89.56"/>
    <rect class="cls-7" x="5885.36" y="328.02" width="829.61" height="437.71"/>
    <rect class="cls-6" x="3900.91" y="3.5" width="1483.01" height="1148.44"/>
    <rect class="cls-16" x="3900.91" y="1018.06" width="1483.01" height="180.43"/>
    <polygon class="cls-16" points="5383.91 1018.06 3900.91 1018.06 4454.18 913.68 4836.71 913.68 5383.91 1018.06"/>
    <line class="cls-23" x1="1131.89" y1="643.37" x2="1718.86" y2="643.37"/>
    <g>
      <rect class="cls-8" x="1160.46" y="164.92" width="533.98" height="457.87"/>
      <g>
        <circle class="cls-1" cx="1289.27" cy="312.51" r="55.1"/>
        <circle class="cls-8" cx="1299.62" cy="309.33" r="55.1"/>
      </g>
      <circle class="cls-1" cx="1427.45" cy="608.25" r="2.39"/>
      <circle class="cls-1" cx="1215.75" cy="589.32" r="2.39"/>
      <circle class="cls-1" cx="1467.48" cy="581.54" r="2.39"/>
      <circle class="cls-1" cx="1488.3" cy="328.74" r="2.39"/>
      <circle class="cls-1" cx="1659.85" cy="295.22" r="2.39"/>
      <circle class="cls-1" cx="1302.71" cy="437.29" r="2.39"/>
      <circle class="cls-1" cx="1626.59" cy="204.96" r="2.39"/>
      <circle class="cls-1" cx="1201.12" cy="369.02" r="1.4"/>
      <circle class="cls-1" cx="1215" cy="373.96" r="1.4"/>
      <circle class="cls-1" cx="1216.75" cy="392.45" r="1.4"/>
      <circle class="cls-1" cx="1629.83" cy="267.12" r="1.6"/>
      <circle class="cls-1" cx="1650.28" cy="272.9" r="1.6"/>
      <circle class="cls-1" cx="1521.64" cy="368.21" r="2.39"/>
      <circle class="cls-1" cx="1613.02" cy="324.81" r="1.6"/>
      <circle class="cls-1" cx="1234.16" cy="190.02" r="2.39"/>
      <circle class="cls-1" cx="1329.69" cy="270.27" r="1.6"/>
      <circle class="cls-1" cx="1386.8" cy="351.66" r="1.6"/>
      <circle class="cls-1" cx="1310.27" cy="298.08" r="2.39"/>
      <circle class="cls-1" cx="1591.97" cy="476.18" r="2.39"/>
      <circle class="cls-1" cx="1595.2" cy="538.34" r="1.6"/>
      <circle class="cls-1" cx="1615.65" cy="544.12" r="1.6"/>
      <circle class="cls-1" cx="1388.07" cy="454.57" r="2.39"/>
      <circle class="cls-1" cx="1506.67" cy="200.73" r="2.39"/>
      <circle class="cls-1" cx="1509.91" cy="262.89" r="1.6"/>
      <circle class="cls-1" cx="1530.36" cy="268.67" r="1.6"/>
      <circle class="cls-1" cx="1453.83" cy="215.09" r="2.39"/>
      <circle class="cls-1" cx="1631.65" cy="500.26" r="2.39"/>
      <circle class="cls-1" cx="1644.24" cy="576.78" r="2.39"/>
    </g>
    <g>
      <polygon class="cls-8" points="4897.64 834.84 5204.17 890.15 5204.17 165.84 4897.64 99.82 4897.64 834.84"/>
      <circle class="cls-1" cx="5173.62" cy="191.69" r="2.39"/>
      <circle class="cls-1" cx="5037.41" cy="263.42" r="2.39"/>
      <circle class="cls-1" cx="4976.24" cy="727.42" r="2.39"/>
      <circle class="cls-1" cx="4964.94" cy="620.69" r="2.39"/>
      <circle class="cls-1" cx="4944.3" cy="168.72" r="2.39"/>
      <circle class="cls-1" cx="5127.96" cy="821.26" r="2.39"/>
      <circle class="cls-1" cx="5127.96" cy="330.04" r="2.39"/>
      <circle class="cls-1" cx="5052.54" cy="785.35" r="1.6"/>
      <circle class="cls-1" cx="5064.99" cy="768.12" r="1.6"/>
      <circle class="cls-1" cx="5183.18" cy="307.72" r="2.39"/>
      <circle class="cls-1" cx="5106.78" cy="483.19" r="1.6"/>
      <circle class="cls-1" cx="5085.73" cy="634.56" r="2.39"/>
      <circle class="cls-1" cx="4984.46" cy="638.56" r="1.6"/>
      <circle class="cls-1" cx="5109.42" cy="702.5" r="1.6"/>
      <circle class="cls-1" cx="5008.04" cy="325.81" r="2.39"/>
      <circle class="cls-1" cx="5011.28" cy="387.97" r="1.6"/>
      <circle class="cls-1" cx="5031.73" cy="393.75" r="1.6"/>
      <circle class="cls-1" cx="4955.2" cy="340.17" r="2.39"/>
      <circle class="cls-1" cx="5125.41" cy="658.64" r="2.39"/>
      <circle class="cls-1" cx="5180.78" cy="528.98" r="2.39"/>
    </g>
    <g>
      <rect class="cls-8" x="4451.15" y="68.61" width="382.53" height="749.07"/>
      <circle class="cls-1" cx="4777.06" cy="247.44" r="2.39"/>
      <circle class="cls-1" cx="4566.07" cy="144.35" r="2.39"/>
      <circle class="cls-1" cx="4825.41" cy="517.14" r="2.39"/>
      <circle class="cls-1" cx="4464.42" cy="110.97" r="1.6"/>
      <circle class="cls-1" cx="4556.5" cy="122.03" r="1.6"/>
      <circle class="cls-1" cx="4713.62" cy="202.63" r="2.39"/>
      <circle class="cls-1" cx="4712.02" cy="600.1" r="1.6"/>
      <circle class="cls-1" cx="4765.09" cy="802.49" r="2.39"/>
      <circle class="cls-1" cx="4498.66" cy="205.03" r="2.39"/>
      <circle class="cls-1" cx="4510.69" cy="440.52" r="1.6"/>
      <circle class="cls-1" cx="4478.84" cy="399.72" r="1.6"/>
      <circle class="cls-1" cx="4754.58" cy="171.29" r="2.39"/>
      <circle class="cls-1" cx="4644.27" cy="723.35" r="1.6"/>
      <circle class="cls-1" cx="4510.69" cy="485.46" r="1.6"/>
      <circle class="cls-1" cx="4637.56" cy="110.97" r="2.39"/>
      <circle class="cls-1" cx="4823.01" cy="89.92" r="2.39"/>
      <circle class="cls-1" cx="4594.33" cy="619.13" r="2.39"/>
      <circle class="cls-1" cx="4553.06" cy="350.63" r="1.6"/>
      <circle class="cls-1" cx="4777.06" cy="483.86" r="1.6"/>
      <circle class="cls-1" cx="4454.05" cy="726.14" r="1.6"/>
      <circle class="cls-1" cx="4476.45" cy="592.99" r="2.39"/>
      <circle class="cls-1" cx="4666.41" cy="455.34" r="2.39"/>
      <circle class="cls-1" cx="4621.49" cy="694.52" r="2.39"/>
    </g>
    <g>
      <polygon class="cls-8" points="4389.85 834.84 4083.32 890.15 4083.32 165.84 4389.85 99.82 4389.85 834.84"/>
      <circle class="cls-1" cx="4212" cy="820.99" r="2.39"/>
      <circle class="cls-1" cx="4329.34" cy="395.18" r="2.39"/>
      <circle class="cls-1" cx="4366.82" cy="630.28" r="2.39"/>
      <circle class="cls-1" cx="4299.32" cy="367.08" r="1.6"/>
      <circle class="cls-1" cx="4319.77" cy="372.86" r="1.6"/>
      <circle class="cls-1" cx="4369.21" cy="829.89" r="2.39"/>
      <circle class="cls-1" cx="4282.51" cy="424.78" r="1.6"/>
      <circle class="cls-1" cx="4121.48" cy="320.54" r="2.39"/>
      <circle class="cls-1" cx="4087.99" cy="236.81" r="2.39"/>
      <circle class="cls-1" cx="4084" cy="571.33" r="1.6"/>
      <circle class="cls-1" cx="4104.45" cy="577.11" r="1.6"/>
      <circle class="cls-1" cx="4311.19" cy="249.95" r="2.39"/>
      <circle class="cls-1" cx="4233.6" cy="755.14" r="1.6"/>
      <circle class="cls-1" cx="4102.84" cy="823.39" r="1.6"/>
      <circle class="cls-1" cx="4159.92" cy="202.02" r="2.39"/>
      <circle class="cls-1" cx="4378.61" cy="160.09" r="2.39"/>
      <circle class="cls-1" cx="4164.81" cy="443.81" r="2.39"/>
      <circle class="cls-1" cx="4142.39" cy="382.42" r="1.6"/>
      <circle class="cls-1" cx="4162.84" cy="388.19" r="1.6"/>
      <circle class="cls-1" cx="4117.98" cy="473.41" r="1.6"/>
      <circle class="cls-1" cx="4096.93" cy="624.78" r="2.39"/>
      <circle class="cls-1" cx="4239.72" cy="586.16" r="2.39"/>
      <circle class="cls-1" cx="4191.98" cy="519.2" r="2.39"/>
    </g>
    <line class="cls-21" x1="2508.51" y1="699.29" x2="2893.98" y2="699.29"/>
    <g>
      <rect class="cls-14" x="6069.78" y="929.19" width="485.53" height="233.14"/>
      <path class="cls-9" d="M6824.94,1245.55c-.52,6.67-6.97,6.77-6.97,6.77h-1037.42s-5.2-1.41-5.2-7.84,5.02-7.84,5.02-7.84h1037.59s7.48,2.26,6.97,8.91Z"/>
      <path class="cls-4" d="M6822.44,1205.45c-.14,31.16-4.45,31.18-4.47,31.18h-39.32v-218.71c0-3.97,.91-6.59,2.14-8.32,2.56-3.59,6.51-3.33,6.51-3.33h26.99c8.22,0,8.14,12.82,8.14,12.82,0,0,.14,155.17,0,186.35Z"/>
      <path class="cls-4" d="M6778.66,1112.19v57.82c-78.26-.3-205.17,0-205.17,0h-121.03s2.04-2.2,1.61-8.63c-.44-6.43-1.61-45.91-1.61-45.91,0,0,27.03-2.32,96.84-.44,69.83,1.89,229.36-2.84,229.36-2.84Z"/>
      <path class="cls-4" d="M5815.45,1027.66v208.98h-35.07v-213.03s-.08-8.87,4.35-8.87,26.66,3.26,26.66,3.26c0,0,.32,.04,.79,.3,1.17,.67,3.27,2.78,3.27,9.37Z"/>
      <path class="cls-14" d="M5909.57,1252.32l-40.81,69.89s-5.99,1.65-11.39,1.45c-5.38-.22-7.44-3.73-7.44-3.73l25.88-67.6h33.76Z"/>
      <path class="cls-14" d="M6745.67,1324.13s-2.9,1.67-9.11,1.45c-6.23-.2-9.33-1.03-9.33-1.03l-42.71-72.23h34l27.15,71.81Z"/>
      <path class="cls-22" d="M6814.3,1006.28h-26.99s-3.95-.26-6.51,3.33l-51.41-22.81c-.18-3.29-.26-5.2-.26-5.2h11.49c5.74,0,11.49,1.57,11.49,1.57l62.18,23.1Z"/>
      <line class="cls-3" x1="6729.39" y1="986.81" x2="6729.14" y2="986.69"/>
      <path class="cls-4" d="M6133.64,1171.61c-3.69,4.05-31.18,3.59-74.53,4.33-43.33,.71-130.78-1.67-140.78-1.53-10,.12-92.11,1.65-96.68,1.51-4.57-.12-6.19-4.31-6.19-4.31v-50.81s129.33-1.81,197.51,1.03c68.2,2.86,117.46-4.41,117.46-4.41,0,0,.42,32.61,.85,43.07,.44,10.46,2.36,11.12,2.36,11.12Z"/>
      <path class="cls-4" d="M6452.45,1170.01c-18.9,2.52-51.17,2.98-77.8,3.59-71.71,1.69-172.74,1.27-188.99,1.03-20.52-.3-52.02-3.02-52.02-3.02,0,0-1.93-.66-2.36-11.12-.44-10.46-.85-43.07-.85-43.07,0,0,106.13,3.18,151.22,2.14,45.09-1.01,154.06,3.99,170.81-4.11,0,0,1.17,39.48,1.61,45.91,.44,6.43-1.61,8.63-1.61,8.63Z"/>
      <path class="cls-10" d="M6121.23,1179.04c-16.12,1.55-78.44,.95-88.68,1.59-10.24,.64-58.55,.42-71.31-.22-12.76-.62-42.65-.2-64.41,.95-21.75,1.15-51.6,.93-64.07,0-6.99-.52-9.63-2.16-10.62-3.51-.75-1.05-.5-1.93-.5-1.93,4.57,.14,86.68-1.39,96.68-1.51,10-.14,97.45,2.24,140.78,1.53,43.35-.73,70.84-.28,74.53-4.33,0,0,.02,.02,.04,.08,1.87,5.48,3.57,5.8-12.44,7.34Z"/>
      <path class="cls-22" d="M6142.07,1099.76c-10.74,8.59-11.65,17.66-11.65,17.66,0,0-49.26,7.26-117.46,4.41-68.18-2.84-197.51-1.03-197.51-1.03v-4.45c9.51-17.05,43.74-29.37,43.74-29.37,0,0,25.33-9.77,57.84-9.77s139.19,2.72,139.19,2.72c0,0,55.2,.89,66.71,7.05,7.7,4.11,13.66,8.44,16.75,10.86,1.55,1.19,2.38,1.93,2.38,1.93Z"/>
      <path class="cls-4" d="M6149.1,944.45c-2.7,3.59,2.14,17.03-1.63,30.31-3.77,13.28,1.43,37.14,0,41.62-1.43,4.49-1.71,30.31-1.39,33.54,.32,3.22-.4,15.24-2.74,18.1-2.32,2.88-.54,5.56,0,6.65,.54,1.07,4.37,14.03-3.65,23.16-3.1-2.42-9.05-6.75-16.75-10.86-11.51-6.15-66.71-7.05-66.71-7.05,0,0-106.68-2.72-139.19-2.72s-57.84,9.77-57.84,9.77l5.08-91.26,.42-7.66s-1.35-43.65,1.59-49.7c2.96-6.07-1.47-7.7,.65-11.31,2.14-3.61,6.89-8.85,9.51-6.55,2.62,2.28,9.17,1.17,10.32-.56,1.15-1.75,5.74-1.55,13.28,0,7.54,1.53,17.53,2.02,18.99,.06,1.49-1.96,70.14-3.57,85.55-1.29,15.4,2.28,104.7,2.1,111.25-.02,6.55-2.12,31.5,.5,34.14,10.88,0,0,1.81,11.29-.87,14.89Z"/>
      <path class="cls-22" d="M6452.45,1115.46c-16.75,8.1-125.72,3.1-170.81,4.11-45.09,1.03-151.22-2.14-151.22-2.14,0,0,.91-9.07,11.65-17.66,0,0,1.79-1.71,4.66-4.03,5.36-4.35,14.47-10.88,22.45-12.37,9.94-1.87,55.81-2.14,55.81-2.14,0,0,76.95-2.7,87.07-1.87,10.12,.85,79.97-1.29,103.84,8.2,11.57,4.6,18.1,7.78,21.77,9.84,3.89,2.2,4.55,3.14,4.55,3.14,0,0,4.7,5.26,7.76,7.92,3.08,2.64,2.46,7.01,2.46,7.01Z"/>
      <path class="cls-4" d="M6437.69,1097.4c-3.67-2.06-10.2-5.24-21.77-9.84-23.88-9.49-93.72-7.34-103.84-8.2-10.12-.83-87.07,1.87-87.07,1.87,0,0-45.87,.28-55.81,2.14-7.98,1.49-17.09,8.02-22.45,12.37,0,0-2.46-14.49-.73-16.53,1.71-2.06,.73-22.47,.73-22.47,0,0,2.68-21.61,2.86-24.87,.18-3.27,.91-12.19,.97-16.65,.06-4.45-1.31-12.17-.79-14.91,.52-2.76,1.77-22.31,.79-24.71-.97-2.4,.36-8.91,.36-8.91,0,0,1.51-3.95,0-8.4-1.51-4.47-1.83-13.83-1.83-13.83,2.68-3.59,.87-14.89,.87-14.89,0,0,3.69-7.92,11.61-7.38,7.92,.52,67.56-1.59,79.51,.18,11.97,1.75,72.82-1.07,87.61-.54,14.77,.54,89.71-2.46,101.68,1.41,0,0,3.51,1.23,5.1,5.97,0,0,2.86,8.42,0,13.06-2.86,4.66-.97,8.63,0,10.48,.95,1.85,1.51,76.81-.14,82.55-1.63,5.76,2.16,31.62,.89,35.83-1.27,4.21-2.78,9.94-.89,10.7,1.91,.77,8.51,10.66,2.34,15.58Z"/>
      <path class="cls-22" d="M6778.66,1107.44v4.74s-159.54,4.72-229.36,2.84c-69.81-1.89-96.84,.44-96.84,.44,0,0,.62-4.37-2.46-7.01-3.06-2.66-7.76-7.92-7.76-7.92,0,0,1.55-2.58,4.86-5.66,4.03-3.77,10.68-8.26,20.24-9.61,17.37-2.46,55.81-7.5,64.76-8.06,8.95-.56,120.66-1.13,144.79-1.49,24.14-.34,59.82,8.22,59.82,8.22,0,0,27.23,6.79,41.94,23.5Z"/>
      <path class="cls-10" d="M6780.8,1009.61c-1.23,1.73-2.14,4.35-2.14,8.32v89.51c-14.71-16.71-41.94-23.5-41.94-23.5-2.9-9.39-6.39-77.65-7.32-97.14l51.41,22.81Z"/>
      <path class="cls-4" d="M6736.72,1083.94s-35.69-8.55-59.82-8.22c-24.14,.36-135.84,.93-144.79,1.49-8.95,.56-47.4,5.6-64.76,8.06-9.57,1.35-16.22,5.84-20.24,9.61,0,0-7.82-4.35-8.22-11.67-.42-7.32,1.39-9.37,1.39-9.37,0,0,.99-2.64,0-8.34-.99-5.7-1.45-17.92,0-23,1.45-5.1-1.31-10.38-1.45-14.67-.16-4.27,1.83-10.12,1.45-14.53-.38-4.41-1.13-11.12-1.47-14.57-.34-3.47,0-25.45,0-25.45,0,0,.87-18.14-.79-20.86-1.65-2.74-1.83-7.46-.69-10.56,1.11-3.12,4.43-5.87,4.01-8.53-.42-2.62-4.29-5.3-5.82-4.15,.18-.56,3.35-9.31,10.18-10.18,7.03-.87,82.67,.18,91.46,.36,8.79,.18,122.26,.18,129.11-.54,6.87-.69,30.96-1.79,35.01-1.25,4.05,.56,9.33,5.12,14.25,2.84,4.92-2.28,10.56,1.95,10.56,4.74s5.1,19.53,4.05,26.04c-1.07,6.51-4.94,27.57-.99,30.41,0,0,.08,1.91,.26,5.2,.93,19.49,4.43,87.75,7.32,97.14Z"/>
      <path class="cls-3" d="M6435.5,929.19s-.02,.02-.02,.02"/>
      <path class="cls-3" d="M6435.5,929.19s-.02,.02-.02,.02"/>
      <path class="cls-4" d="M6778.66,1185.8v50.83h-963.2v-50.83h963.2Z"/>
      <path class="cls-10" d="M6438.62,1176.48c-15.24,2.1-69.75,3.79-69.75,3.79,0,0-128.2,1.05-135.16,1.05s-78.82-1.57-87.87-2.5c-8.5-.85-11.79-6.43-12.17-7.13-.02-.06-.04-.08-.04-.08,0,0,31.5,2.72,52.02,3.02,16.26,.24,117.28,.65,188.99-1.03,26.64-.62,58.91-1.07,77.8-3.59,0,0,0,.04,.02,.1,.1,.67,.02,4.45-13.85,6.37Z"/>
      <path class="cls-10" d="M6778.66,1170.01v2.8c-.85,1.17-3.26,2.18-6.41,3.02-10.1,2.7-27.97,3.79-27.97,3.79,0,0-232.98,1.03-235.04,1.03s-47-.46-50.67-.93c-3.43-.44-5.8-8.57-6.09-9.61-.02-.06-.02-.1-.02-.1h121.03s126.91-.3,205.17,0Z"/>
      <path class="cls-9" d="M6778.66,1181.32v4.49h-963.2l6.69-7.96c.99,1.35,3.63,3,10.62,3.51,12.46,.93,42.32,1.15,64.07,0,21.75-1.15,51.64-1.57,64.41-.95,12.76,.64,61.07,.85,71.31,.22,10.24-.64,72.56-.04,88.68-1.59,16.02-1.55,14.31-1.87,12.44-7.34,.38,.69,3.67,6.27,12.17,7.13,9.05,.93,80.9,2.5,87.87,2.5s135.16-1.05,135.16-1.05c0,0,54.5-1.69,69.75-3.79,13.87-1.93,13.95-5.7,13.85-6.37,.3,1.03,2.66,9.17,6.09,9.61,3.67,.48,48.61,.93,50.67,.93s235.04-1.03,235.04-1.03c0,0,17.86-1.09,27.97-3.79,3.26,1.27,6.41,5.5,6.41,5.5Z"/>
      <path class="cls-3" d="M6772.25,1175.82c-.18-.06-.34-.12-.52-.18"/>
      <path class="cls-10" d="M5812.18,1018.29l52.1-22.57-5.08,91.26s-34.24,12.33-43.74,29.37v-88.7c0-6.59-2.1-8.69-3.27-9.37Z"/>
      <path class="cls-22" d="M5784.73,1014.73l27.45,3.55,52.1-22.57h0c.22-4.08-13.38-3.29-17.4-2.55-11.61,2.15-25.99,4.31-62.15,21.56Z"/>
    </g>
    <rect class="cls-7" x="504.12" y="1014.82" width="180.94" height="285.24"/>
    <rect class="cls-7" x="704.2" y="1014.82" width="180.94" height="285.24"/>
    <rect class="cls-7" x="504.12" y="893.2" width="381.02" height="103.86"/>
    <rect class="cls-7" x="1596.81" y="1011.78" width="180.94" height="285.24"/>
    <rect class="cls-7" x="1287.76" y="890.15" width="292.31" height="406.86"/>
    <rect class="cls-7" x="1796.88" y="1011.78" width="180.94" height="285.24"/>
    <rect class="cls-7" x="1596.81" y="890.15" width="381.02" height="103.86"/>
  </g>
</svg>