<?xml version="1.0" encoding="UTF-8"?>
<svg id="Layer_2" data-name="Layer 2" xmlns="http://www.w3.org/2000/svg" viewBox="0 0 7119.07 1531.66">
  <defs>
    <style>
      .cls-1 {
        fill: #7f6a65;
      }

      .cls-2 {
        fill: #98a5a4;
      }

      .cls-3 {
        fill: #8e7570;
      }

      .cls-4 {
        fill: #a8ccca;
      }

      .cls-5 {
        fill: #536cc4;
      }

      .cls-6 {
        fill: #49342e;
      }

      .cls-7 {
        fill: #3c4c4a;
      }

      .cls-8 {
        fill: #604b45;
      }

      .cls-9 {
        fill: #75594e;
      }

      .cls-10 {
        fill: #768dcc;
      }

      .cls-11 {
        fill: #7a8c8b;
      }

      .cls-12 {
        fill: #51382d;
      }

      .cls-13 {
        fill: none;
        stroke: #a8ccca;
        stroke-miterlimit: 10;
        stroke-width: 7px;
      }
    </style>
  </defs>
  <g id="Background">
    <rect class="cls-1" width="7119.07" height="1531.66"/>
    <rect class="cls-8" x="0" y="1148.44" width="7119.07" height="383.22"/>
    <rect class="cls-2" x="280.27" y="872.68" width="2176.84" height="435.89"/>
    <polygon class="cls-4" points="2457.12 872.68 280.27 872.68 337.61 816.94 2393.7 808.95 2457.12 872.68"/>
    <rect class="cls-11" x="2508.51" y="434.14" width="385.47" height="858.06" rx="84.94" ry="84.94"/>
    <rect class="cls-7" x="1995.78" y="872.68" width="384.29" height="435.89"/>
    <rect class="cls-7" x="2098.4" width="179.04" height="516.51"/>
    <polygon class="cls-7" points="2344.95 551.72 2030.9 551.72 2095 419.65 2277.44 419.65 2344.95 551.72"/>
    <rect class="cls-4" x="2030.9" y="953.15" width="314.05" height="262.24" rx="50.55" ry="50.55"/>
    <rect class="cls-11" x="1995.78" y="1240.07" width="384.29" height="68.5"/>
    <polygon class="cls-11" points="2380.07 872.93 1995.78 872.93 2045.82 808.95 2332.21 808.95 2380.07 872.93"/>
    <line class="cls-13" x1="2508.51" y1="699.29" x2="2893.98" y2="699.29"/>
    <rect class="cls-11" x="2028.1" y="903.97" width="319.31" height="17.14" rx="6.87" ry="6.87"/>
    <rect class="cls-11" x="469.48" y="884.23" width="363.91" height="412.78"/>
    <rect class="cls-4" x="491.78" y="912.43" width="319.31" height="17.14" rx="6.87" ry="6.87"/>
    <rect class="cls-10" x="1158.39" y="175.18" width="533.98" height="457.87"/>
    <g>
      <rect class="cls-12" x="2961.86" y="48.6" width="836.63" height="1258.85"/>
      <rect class="cls-9" x="2997.05" y="85.88" width="766.24" height="216.64"/>
      <rect class="cls-9" x="2997.05" y="330.23" width="766.24" height="216.64"/>
      <rect class="cls-9" x="2997.05" y="574.59" width="766.24" height="216.64"/>
      <rect class="cls-9" x="2997.05" y="818.94" width="766.24" height="216.64"/>
      <rect class="cls-9" x="2997.05" y="1063.3" width="766.24" height="216.64"/>
      <rect class="cls-8" x="2997.05" y="330.23" width="766.24" height="55.22"/>
      <rect class="cls-8" x="2997.05" y="1224.51" width="766.24" height="55.22"/>
      <rect class="cls-8" x="2997.05" y="574.59" width="766.24" height="28.83"/>
      <rect class="cls-6" x="2997.05" y="85.88" width="71.19" height="216.64"/>
      <polygon class="cls-6" points="3068.24 546.88 2997.05 546.88 2997.05 330.23 3068.24 385.45 3068.24 546.88"/>
      <polygon class="cls-6" points="3068.24 791.23 2997.05 791.23 2997.05 574.59 3068.24 603.41 3068.24 791.23"/>
      <rect class="cls-6" x="2997.05" y="818.94" width="71.19" height="216.64"/>
      <polygon class="cls-6" points="3763.29 791.23 3692.1 791.23 3692.1 603.41 3763.29 574.59 3763.29 791.23"/>
      <rect class="cls-6" x="3692.1" y="818.94" width="71.19" height="216.64"/>
      <polygon class="cls-6" points="3068.24 1224.51 2997.05 1279.94 2997.05 1063.3 3068.24 1063.3 3068.24 1224.51"/>
      <polygon class="cls-6" points="3763.29 1279.94 3692.1 1224.51 3692.1 1063.3 3763.29 1063.3 3763.29 1279.94"/>
      <rect class="cls-6" x="3692.1" y="85.88" width="71.19" height="216.64"/>
      <polygon class="cls-6" points="3763.29 546.88 3692.1 546.88 3692.1 385.45 3763.29 330.23 3763.29 546.88"/>
      <polygon class="cls-8" points="3692.1 153.69 3068.24 149.5 2997.05 85.88 3763.29 85.88 3692.1 153.69"/>
      <polygon class="cls-8" points="3763.29 1035.48 2997.05 1035.48 3068.24 1001.99 3692.1 1001.99 3763.29 1035.48"/>
      <polygon class="cls-8" points="3763.29 791.23 2997.05 791.23 3068.24 774.49 3692.1 774.49 3763.29 791.23"/>
    </g>
    <rect class="cls-11" x="1356.99" y="766.46" width="42.49" height="42.49" rx="15.59" ry="15.59"/>
    <rect class="cls-11" x="1481.45" y="766.46" width="42.49" height="42.49" rx="15.59" ry="15.59"/>
    <rect class="cls-11" x="1944.3" y="32.26" width="42.49" height="42.49" rx="15.59" ry="15.59"/>
    <rect class="cls-11" x="882.77" y="32.26" width="42.49" height="42.49" rx="15.59" ry="15.59"/>
    <ellipse class="cls-7" cx="2095.26" cy="859.43" rx="64.36" ry="6.42"/>
    <ellipse class="cls-7" cx="2283.22" cy="859.43" rx="64.36" ry="6.42"/>
    <g>
      <ellipse class="cls-7" cx="2261.97" cy="821.88" rx="59.65" ry="4.28"/>
      <ellipse class="cls-7" cx="2113.55" cy="821.88" rx="59.65" ry="4.28"/>
    </g>
    <ellipse class="cls-7" cx="2187.76" cy="839.63" rx="64.36" ry="4.82"/>
    <path class="cls-5" d="M1583.52,863.74h-277.47c-7.84,0-13.09-8.07-9.9-15.24l11.2-25.18c1.74-3.91,5.62-6.43,9.9-6.43h252.77c3.99,0,7.66,2.19,9.55,5.71l13.51,25.18c3.87,7.22-1.36,15.95-9.55,15.95Z"/>
    <rect class="cls-2" x="925.26" y="39" width="1019.04" height="29.02" rx="14.51" ry="14.51"/>
    <rect class="cls-11" x="1735.91" width="128.36" height="787.7"/>
    <rect class="cls-11" x="978.6" width="124.35" height="787.7"/>
    <rect class="cls-7" x="2045.94" y="781.34" width="286.27" height="27.61"/>
    <rect class="cls-11" x="1131.89" y="622.29" width="586.97" height="21.07"/>
    <rect class="cls-11" x="1152.45" y="643.48" width="545.84" height="19.6"/>
    <rect class="cls-11" x="1418.48" y="750.75" width="43.8" height="89.56"/>
    <rect class="cls-10" x="5885.36" y="236.1" width="829.61" height="437.71"/>
    <rect class="cls-3" x="3900.91" y="3.5" width="1483.01" height="1148.44"/>
    <rect class="cls-10" x="4451.15" y="48.6" width="382.53" height="749.07"/>
    <polygon class="cls-10" points="4389.85 814.83 4083.32 870.14 4083.32 145.82 4389.85 79.81 4389.85 814.83"/>
    <polygon class="cls-10" points="4897.64 814.83 5204.17 870.14 5204.17 145.82 4897.64 79.81 4897.64 814.83"/>
    <rect class="cls-8" x="3900.91" y="1018.06" width="1483.01" height="180.43"/>
    <polygon class="cls-8" points="5383.91 1018.06 3900.91 1018.06 4454.18 913.68 4836.71 913.68 5383.91 1018.06"/>
  </g>
</svg>