<?xml version="1.0" encoding="UTF-8"?>
<svg id="Layer_2" data-name="Layer 2" xmlns="http://www.w3.org/2000/svg" viewBox="0 0 546.06 223">
  <defs>
    <style>
      .cls-1 {
        fill: #ea9861;
      }

      .cls-2 {
        fill: #82270c;
      }

      .cls-3 {
        fill: #690d02;
      }

      .cls-4 {
        fill: #cf7a42;
      }

      .cls-5 {
        fill: #aa4c22;
      }

      .cls-6 {
        fill: #460000;
      }

      .cls-7 {
        fill: none;
        stroke: #2c190c;
        stroke-miterlimit: 10;
      }
    </style>
  </defs>
  <g id="PEN">
    <path class="cls-5" d="M273.72,216.55s-18.04,1.35-40.37,1.49c-22.32,.14-148.73,0-148.73,0,0,0-17.4,.26-32.16-.25-4.98-.17-9.66-.43-13.27-.82-2.72-.29-4.83-.65-6.01-1.11,0,0,.31-1.2,.86-3.32,.05-.2,.1-.4,.16-.62,.05-.2,.11-.41,.16-.63,.12-.43,.24-.89,.36-1.37,.06-.2,.11-.41,.16-.62,.03-.09,.05-.18,.07-.27,.06-.22,.12-.45,.18-.68,.02-.08,.05-.17,.07-.26,.08-.32,.17-.65,.26-.98,.01-.04,.02-.09,.03-.13,.08-.3,.16-.59,.24-.9,.14-.53,.28-1.09,.43-1.66,.06-.22,.12-.45,.18-.68,.19-.71,.39-1.46,.59-2.22,.1-.41,.21-.82,.33-1.24,.37-1.4,.75-2.87,1.16-4.39,.18-.7,.37-1.41,.57-2.13,.38-1.45,.79-2.95,1.2-4.48,.26-.98,.53-1.98,.8-2.98,.52-1.93,1.06-3.91,1.6-5.9,.08-.3,.17-.61,.25-.92,.43-1.56,.86-3.11,1.29-4.67,.34-1.25,.69-2.5,1.03-3.74,.35-1.25,.7-2.49,1.04-3.72,.26-.92,.52-1.83,.78-2.74,.34-1.22,.69-2.43,1.03-3.62,.17-.59,.34-1.18,.51-1.76,.33-1.17,.67-2.32,1-3.45,.08-.28,.17-.57,.25-.84,.16-.56,.32-1.11,.49-1.66,.08-.27,.16-.54,.24-.81,.16-.54,.32-1.07,.48-1.59,.87-2.88,1.69-5.53,2.45-7.86,.14-.42,.27-.83,.41-1.24,.07-.22,.15-.44,.22-.66,.65-1.92,1.24-3.56,1.75-4.85,.16-.39,.31-.75,.45-1.07,.07-.17,.14-.32,.21-.46,.05-.13,.11-.25,.17-.36,.22-.45,.42-.8,.59-1.02l11.39-1.23c11.38-1.23,140.44-2.48,171.14-1.11,15.73,.7,24.18,7.27,28.68,13.51,3.88,5.38,4.83,10.52,4.98,11.46v.04c-.01,5.81-.12,11.69-.39,16.42-.78,13.54,.69,44.1,.69,44.1Z"/>
    <path class="cls-5" d="M143.94,63.86c-.7,14.4-.85,24.4-10.4,26.53-9.55,2.12-13.34-.91-14.24-8.95-.91-8.03-2.26-21.82-7.72-34.1-5.47-12.27-3.84-14.49-13.56-27.4-3.64-7.05-9.35-9.72-9.35-9.72,0,0,6.91-6.22,26.48-7.37,19.58-1.15,23.95,.23,28.79,3.92,0,0,.01,.75,.03,2.09v.08c.01,.54,.02,1.16,.03,1.87,0,.28,.01,.57,.01,.88v.15c.01,.35,.01,.71,.02,1.09,.01,1.25,.03,2.65,.05,4.18,.01,.61,.01,1.24,.02,1.88,.02,1.54,.03,3.17,.05,4.88,.01,.6,.01,1.2,.02,1.81,.11,13.32,.16,30.15-.23,38.18Z"/>
    <path class="cls-5" d="M109.6,101.38h0c-5.45,1.31-10.64,2.7-14.39,3.88-2.78-.03-5.44-6.11-6.54-10.02-1.09-3.9,2.35-8.78,3.33-12.07,.97-3.28-6.84-10.93-5.16-17.9,1.67-6.97-4.18-12.13-10.88-14.5-6.69-2.37-15.33-13.53-18.73-14.5-3.39-.98-6.36-5.58-10.27-8.37-3.81-2.72-12.83,1.48-13.25,1.68,2.3-1.93,5.04-3.94,7.76-5.31,6.9-3.46,32.92-17.96,47.2-14.05,0,0,5.71,2.67,9.35,9.72,.61,1.18,1.16,2.48,1.61,3.91,.01,.01,.02,.02,.01,.03,0,.02,.01,.04,.02,.08,.46,2.22,7.87,38.09,8.13,48.84,.26,11.09,1.81,28.58,1.81,28.58Z"/>
    <path class="cls-5" d="M62.26,60.18c-5.31,1.08-10.97-1.08-12.31,5.92-1.35,7-2.16,16.82-7,16.22-4.85-.6-18.89,.85-18.89,.85-3.44-1.08-6.48-1.03-9.05-.43-6.53,.19-10.38-9.25-10.38-9.25,6.31-14.01,18.64-32.87,18.64-32.87l4.38-5.3h.01c.36-.13,8.2-2.77,17.77-.76,4.87,1.03,11.22,5.06,16.83,10.05,0,0,5.31,14.49,0,15.57Z"/>
    <path class="cls-5" d="M33.18,215.86s-9.45,1.84-11.52-3.69c-2.07-5.52-10.59-45.13-15.89-77.6C.48,102.1-2.52,91.97,2.78,77.92c.52-1.4,1.15-2.88,1.85-4.43,0,0,3.85,9.44,10.38,9.25-5.01,1.16-8.23,4.42-9.13,5.56-1.74,2.21-.32,17.65,2.04,26.15,2.28,8.18,9.86,71.29,23.55,98.28h0c.56,1.12,1.13,2.15,1.71,3.13Z"/>
    <path class="cls-7" d="M80.64,113.14c.3-.21,.6-.41,.9-.62-.53,.84-.9,.62-.9,.62Z"/>
    <path class="cls-2" d="M95.21,105.26c-2.43,.76-4.26,1.43-5.17,1.91-3.68,1.95-6.16,3.74-8.5,5.35,.61-.98,1.44-3.41,2.14-9.31,.47-4-.11-9.49-1.21-15.32,0-.02,0-.04-.01-.06-.09-.93-.31-1.62-.34-1.73h0c-1.97-9.65-5.22-19.88-7.45-25.65-1.87-4.85-6.76-10.83-12.4-15.84-5.61-4.99-11.96-9.02-16.83-10.05-9.57-2.01-17.41,.63-17.77,.75,.12-.13,2.6-2.84,6.03-5.72,0,0,.01,0,.02-.01,.42-.2,9.44-4.4,13.25-1.68,3.91,2.79,6.88,7.39,10.27,8.37,3.4,.97,12.04,12.13,18.73,14.5,6.7,2.37,12.55,7.53,10.88,14.5-1.68,6.97,6.13,14.62,5.16,17.9-.98,3.29-4.42,8.17-3.33,12.07,1.1,3.91,3.76,9.99,6.54,10.02Z"/>
    <path class="cls-7" d="M82.46,87.83c-.11-.57-.22-1.15-.34-1.73,.03,.11,.25,.8,.34,1.73Z"/>
    <path class="cls-4" d="M542.31,124.78c-3.38,14.51-5.61,44.48-8.15,54.44-2.54,9.95-7.2,32.62-7.2,32.62,0,0-.74,2.86-4.34,3.18-3.61,.31-7.52,0-7.52,0,.55-1.12,1.09-2.31,1.61-3.56,.22-.5,.42-1,.63-1.52s.41-1.05,.62-1.58c.41-1.07,.82-2.18,1.21-3.32,.4-1.14,.8-2.31,1.18-3.51,.39-1.2,.77-2.42,1.14-3.68,.18-.6,.36-1.2,.53-1.81,.33-1.14,.65-2.29,.97-3.47,.2-.71,.39-1.43,.57-2.16,.23-.86,.45-1.73,.67-2.6,.34-1.32,.66-2.65,.98-4.01,.03-.11,.06-.22,.08-.33,.27-1.13,.53-2.27,.79-3.42,.3-1.3,.59-2.6,.87-3.91,.28-1.3,.55-2.6,.82-3.91,.01-.02,.01-.04,.01-.06,.28-1.33,.55-2.67,.81-4.01,.27-1.34,.53-2.68,.78-4.03,.15-.75,.29-1.49,.42-2.24,.17-.88,.33-1.77,.49-2.64,.11-.61,.22-1.22,.33-1.83,.09-.47,.17-.93,.25-1.4,.28-1.54,.54-3.08,.8-4.62,.2-1.16,.39-2.31,.58-3.45,.08-.54,.17-1.08,.26-1.61,.04-.22,.08-.44,.11-.67,.17-1.03,.33-2.05,.49-3.06,.08-.5,.16-.99,.24-1.47,.11-.74,.22-1.47,.34-2.2,.17-1.11,.34-2.2,.5-3.29,.16-1.08,.32-2.15,.48-3.2,.09-.64,.19-1.27,.28-1.89,.16-1.13,.32-2.25,.48-3.35,.15-1.02,.29-2.03,.43-3.02,.05-.33,.09-.66,.14-.99,.24-1.71,.47-3.38,.69-4.99,.08-.53,.15-1.07,.22-1.59,.12-.9,.24-1.77,.36-2.63,.08-.57,.16-1.14,.23-1.69,.05-.4,.11-.8,.16-1.19,.05-.41,.1-.81,.16-1.21,.12-.89,.24-1.76,.35-2.59,.04-.34,.09-.67,.13-1,.01-.05,.01-.1,.02-.15,.06-.46,.12-.91,.19-1.35,.02-.16,.04-.31,.06-.47,.03-.21,.05-.42,.08-.62,.03-.21,.06-.41,.08-.61,.03-.19,.06-.39,.08-.58,.13-.89,.24-1.72,.35-2.49,.03-.2,.06-.41,.09-.6,.04-.29,.08-.57,.12-.84,.02-.16,.05-.31,.07-.45,.04-.29,.08-.57,.12-.83,.02-.13,.04-.25,.06-.37,.03-.15,.05-.3,.08-.44,.03-.2,.06-.39,.09-.56,2.22-12.7-8.69-14.7-12.92-15.59-1.59-.33-3.33-.48-5.52,.33,1.55-3.67-7.61-3.36-10.51-5.98-2.89-2.62-6.07-2.62-9.52-5.72-3.45-3.1,4.83-7.25,6.76-10.84,1.94-3.59-10.9-5.52-13.79-6.35-2.9-.82,.13-2.07,1.93-5.51,1.79-3.45-10.51-4-10.51-4,3.03-2.3,6.4-4.01,9.81-5.27,12.59-4.68,25.83-3.32,25.83-3.32,0,0,8.16,8.9,12.5,20.65,4.34,11.76,11.97,28.07,12.18,31.67,.21,3.6-.32,24.25-3.71,38.76Z"/>
    <path class="cls-4" d="M464.47,7.12s-1.56,.86-3.75,2.73c-.54,.46-1.12,.98-1.72,1.57h-.01c-1.08,1.04-2.22,2.27-3.37,3.72-4.76,.28-12.87,12.87-12.87,12.87,.45-2.09,5.23-10.91,3.44-17.19-1.8-6.28-9.12-4.78-14.35-6.43-5.24-1.64-23.39-.63-23.39-.63,1.96-1.48,4.87-3.07,8.05-2.78,5.71,.53,28.27,.63,35.26,1.27,6.99,.63,11.86,3.07,12.71,4.87Z"/>
    <path class="cls-5" d="M500.94,166.06c.02,.12,.04,.23,.05,.34,0,.01,.01,.01,.01,.01-.02-.12-.04-.23-.06-.35Zm-3.77-18.64c.03,.14,.07,.29,.1,.44,.01,.03,.02,.06,.03,.09-.04-.18-.09-.36-.13-.53Zm-.18-.78c.04,.18,.08,.36,.12,.55,0,.01,0,.03,.02,.05-.05-.2-.1-.4-.14-.6ZM401.25,1.51c-2.76-2.02-10.68-1.43-10.68-1.43h-33.86s-68.16,.47-73.91,.02c-5.76-.44-8.99,5.51-8.99,5.51,0,0,.01,.56,.04,1.52v.04c.04,2.25,.13,6.65,.15,11.11h0c.09,.44,2.9,13.89,2.68,18.41-.22,4.58-1.65,10.05,.01,11.51,1.67,1.45-.12,12.74,.77,15.08,.9,2.35,2.57,7.71,1.68,11.07-.9,3.35,2.79,5.81,2.79,5.81,0,0-1.1,3.24-3.79,4.69-2.59,1.4-2.53,4.68-2.52,4.94h0s.04,.08,.08,.12c.06,.11,.14,.22,.22,.32,.07,.1,.14,.21,.23,.3,.15,.2,.31,.38,.48,.56,.11,.12,.22,.24,.34,.34,.02,.03,.03,.04,.05,.05,.01,.02,.03,.04,.04,.04h.01c.12,.12,.23,.23,.36,.33,.38,.33,.78,.62,1.21,.88,.12,.08,.24,.15,.36,.22,.46,.28,.95,.52,1.46,.73,.16,.07,.33,.14,.49,.2,.15,.06,.3,.12,.46,.17,.11,.04,.21,.08,.32,.11,.51,.17,1.04,.31,1.58,.44,.21,.05,.42,.1,.64,.14,.26,.05,.52,.1,.79,.15,.33,.06,.68,.11,1.02,.15,.04,.01,.07,.01,.1,.01,.35,.05,.69,.09,1.05,.12,.07,0,.14,.01,.22,.02,.36,.03,.72,.05,1.09,.07,.4,.03,.8,.04,1.21,.05,.41,.01,.82,.02,1.24,.02,10.23,0,22.4-3.11,28.01-2.72,10.26,.71,43.47-2.14,49.03-2s6.55-9.83,18.38-8.27c11.83,1.57,2.28-9.97,7.27-16.53,4.99-6.55,7.13-8.55,6.94-18.53-.18-9.66,4.38-23.62,4.66-24.47,.01-.03,.01-.04,.01-.04,.56-8.22,.94-16.71,.94-16.71,0,0-1.91-2.54-4.66-4.55ZM109.6,101.39c.03,.05,.15,.24,.32-.08-.11,.03-.21,.05-.32,.08Z"/>
    <path class="cls-5" d="M521.34,80.69c-3.64,1.36-8.52,5.4-15.96,15.71-9.77,13.55-10.04,35.22-9.83,42.51-.68-1.64-2.14-3.92-4.1-6.04-6.27-6.8-18.02-15.38-27.83-21.36,0,0,0,0-.02-.02-.13-.15-.9-1.32-1.93-9.54-1.14-9.07,6.91-43.15,20.92-56.98,.99-.97,2.03-1.86,3.11-2.68,0,0,12.3,.55,10.51,4-1.8,3.44-4.83,4.69-1.93,5.51,2.89,.83,15.73,2.76,13.79,6.35-1.93,3.59-10.21,7.74-6.76,10.84,3.45,3.1,6.63,3.1,9.52,5.72,2.9,2.62,12.06,2.31,10.51,5.98Z"/>
    <path class="cls-4" d="M521.34,33.7s-13.24-1.36-25.83,3.32c0,0-5.43-1.86-9.51-1.5-3.19,.27-6.7-3.35-11.23-3.18,0,0,3.09-5.37,1.57-9.13-1.52-3.75-8.97-1.49-11.09-2.73-2.12-1.24,9.02-4.41,6.26-7.17s-10.43-3.49-10.79-3.46c2.19-1.87,3.75-2.73,3.75-2.73,0,0,8.05-2.22,20.23,4.13,12.18,6.35,34,18.32,36.64,22.45Z"/>
    <path class="cls-7" d="M496.81,145.93c-.02-.09-.04-.18-.06-.26,.01,.06,.03,.12,.05,.18,0,.03,0,.05,0,.08Z"/>
    <path class="cls-7" d="M497.17,147.42c-.02-.08-.04-.16-.06-.23-.05-.22-.1-.44-.15-.65,.01,.03,.02,.06,.03,.1,.04,.2,.09,.4,.14,.6,.01,.06,.03,.12,.04,.18Z"/>
    <path class="cls-7" d="M497.35,148.18c-.03-.11-.05-.22-.08-.32-.03-.15-.07-.3-.1-.44,.04,.17,.09,.35,.13,.53,.02,.08,.03,.15,.05,.23Z"/>
    <path class="cls-7" d="M501.03,166.64c-.01-.08-.02-.16-.04-.24-.01-.11-.03-.22-.05-.34,.02,.12,.04,.23,.06,.35,.01,.08,.02,.15,.03,.23Z"/>
    <path class="cls-5" d="M269.16,50.41c-.76,8.57,0,14.69,0,18.2s2.98,27.96-.73,31.19c-5.49-1.24-12.49-.71-12.49-.71,0,0-69.66-1.8-78.1-1.98-4.65-.1-14.46-.09-23.93-.06,2.46-2.19,1.25-28.76-.05-45.98-1.29-17.21-9.28-45.29-9.28-45.29,1.74-2.1,7.79-6.71,26.99-5.46,24.64,1.61,82.67-.22,82.67-.22,0,0,10.36,.22,13.82,1.37,3.45,1.15,5.75,4.14,5.75,4.14,0,0,.01,.56,.04,1.52v.04c-.15,1.32-3.94,34.85-4.69,43.24Z"/>
    <path class="cls-4" d="M153.91,97.05c-1.66,0-3.31,0-4.92,.02,1.04-4.51-4.8-85.22-5.02-88.13v-.08c-.02-1.34-.03-2.09-.03-2.09,0,0,.15-.39,.64-.99,0,0,7.99,28.08,9.28,45.29,1.3,17.22,2.51,43.79,.05,45.98Z"/>
    <path class="cls-5" d="M455.62,15.14c-1.75,2.19-3.49,4.87-4.97,8.07,0,0-6.11,8.02-8.63,14.55-2.52,6.54-3.1,6.65-3.1,11.81s-2.63,17.64-6.88,22.52c-4.24,4.89-1.26,20.14-7.79,20.03-6.53-.12-12.48,5.52-20.05,5.86h-.02c-1.28-.08-2.57-.16-3.86-.22-.26-9.12,2-55.1,3.25-61.08,.51-2.47,1-8.1,1.39-13.87,.01-.03,.01-.04,.01-.04,.56-8.22,.94-16.71,.94-16.71,0,0,.96-1.11,2.54-2.3,0,0,18.15-1.01,23.39,.63,5.23,1.65,12.55,.15,14.35,6.43,1.79,6.28-2.99,15.1-3.44,17.19,0,0,8.11-12.59,12.87-12.87Z"/>
    <path class="cls-2" d="M57.23,133.36c-.17,.22-.37,.57-.59,1.02-.06,.11-.12,.23-.17,.36-.07,.14-.14,.29-.21,.46-.14,.32-.29,.68-.45,1.07-.51,1.29-1.1,2.93-1.75,4.85-4.93,3.92-22.33,70.63-22.59,71.61-13.69-26.99-21.27-90.1-23.55-98.28-2.36-8.5-3.78-23.94-2.04-26.15,.9-1.14,4.12-4.4,9.13-5.56,2.57-.6,5.61-.65,9.05,.43,2.79,.87,5.84,2.47,9.12,5.13,15.16,12.29,24.05,45.06,24.05,45.06Z"/>
    <path class="cls-3" d="M54.06,141.12c-.07,.22-.15,.44-.22,.66-.14,.41-.27,.82-.41,1.24-.76,2.33-1.58,4.98-2.45,7.86-.16,.52-.32,1.05-.48,1.59-.08,.27-.16,.54-.24,.81-.17,.55-.33,1.1-.49,1.66-.08,.27-.17,.56-.25,.84-.33,1.13-.67,2.28-1,3.45-.17,.58-.34,1.17-.51,1.76-.34,1.19-.69,2.4-1.03,3.62-.26,.91-.52,1.82-.78,2.74-.34,1.23-.69,2.47-1.04,3.72-.34,1.24-.69,2.49-1.03,3.74-.43,1.56-.86,3.11-1.29,4.67-.08,.31-.17,.62-.25,.92-.54,1.99-1.08,3.97-1.6,5.9-.27,1-.54,2-.8,2.98-.41,1.53-.82,3.03-1.2,4.48-.2,.72-.39,1.43-.57,2.13-.41,1.52-.79,2.99-1.16,4.39-.12,.42-.23,.83-.33,1.24-.2,.76-.4,1.51-.59,2.22-.06,.23-.12,.46-.18,.68-.15,.57-.29,1.13-.43,1.66-.08,.31-.16,.6-.24,.9-.01,.04-.02,.09-.03,.13-.09,.33-.18,.66-.26,.98-.02,.09-.05,.18-.07,.26-.06,.23-.12,.46-.18,.68-.02,.09-.04,.18-.07,.27-.05,.21-.1,.42-.16,.62-.12,.48-.24,.94-.36,1.37-.05,.22-.11,.43-.16,.63-.06,.22-.11,.42-.16,.62-.55,2.12-.86,3.32-.86,3.32-.58-.98-1.15-2.01-1.71-3.12h0c.26-.99,17.66-67.7,22.59-71.62Z"/>
    <path class="cls-3" d="M516.71,211.46c-.52,1.25-1.06,2.44-1.61,3.56,0,0-12.3-35.31-13.86-46.9-.07-.49-.14-.98-.21-1.48-.01-.08-.02-.15-.03-.23-.02-.12-.04-.23-.06-.35-.04-.31-.09-.62-.15-.93-.06-.4-.12-.79-.19-1.19-.02-.12-.04-.24-.06-.36-.11-.63-.22-1.27-.33-1.9-.04-.21-.08-.41-.11-.61-.11-.59-.23-1.18-.34-1.77-.11-.58-.23-1.17-.35-1.75-.19-.93-.38-1.86-.57-2.76-.17-.8-.34-1.57-.51-2.33-.06-.3-.13-.6-.2-.89-.11-.5-.22-.99-.33-1.46-.15-.67-.3-1.32-.45-1.93-.02-.08-.03-.15-.05-.23-.04-.18-.09-.36-.13-.53-.01-.06-.03-.12-.04-.18-.05-.2-.1-.4-.14-.6-.01-.04-.02-.07-.03-.1-.04-.17-.08-.34-.12-.51-.02-.06-.03-.12-.04-.18-.02-.06-.04-.12-.05-.18-.02-.08-.04-.16-.06-.23-.01-.05-.02-.1-.03-.15-.02-.09-.04-.17-.07-.26-.01-.03-.01-.06-.02-.09-.01-.04-.02-.07-.03-.11-.01-.04-.02-.09-.03-.13-.02-.09-.04-.18-.06-.26-.09-.36-.17-.69-.25-.99,1.21,3.63,20.58,62.3,20.51,68.01Z"/>
    <path class="cls-7" d="M496.8,145.85c0,.06,.02,.12,.04,.18-.01-.03-.02-.07-.03-.1-.02-.09-.04-.18-.06-.26,.01,.06,.03,.12,.05,.18Z"/>
    <path class="cls-7" d="M497.13,147.24c.01,.06,.03,.12,.04,.18-.02-.08-.04-.16-.06-.23-.05-.22-.1-.44-.15-.65,.01,.03,.02,.06,.03,.1,.04,.2,.09,.4,.14,.6Z"/>
    <path class="cls-2" d="M539.78,95.95c-.03,.17-.06,.36-.09,.56-.03,.14-.05,.29-.08,.44-.02,.12-.04,.24-.06,.37-.04,.26-.08,.54-.12,.83-.02,.14-.05,.29-.07,.45-.04,.27-.08,.55-.12,.84-.03,.19-.06,.4-.09,.6-.11,.77-.22,1.6-.35,2.49-.02,.19-.05,.39-.08,.58-.02,.2-.05,.4-.08,.61-.03,.2-.05,.41-.08,.62-.02,.16-.04,.31-.06,.47-.07,.44-.13,.89-.19,1.35,0,.05,0,.1-.02,.15-.04,.33-.09,.66-.13,1-.11,.83-.23,1.7-.35,2.59-.06,.4-.11,.8-.16,1.21-.05,.39-.11,.79-.16,1.19-.08,.55-.16,1.12-.23,1.69-.12,.86-.24,1.73-.36,2.63-.07,.52-.14,1.06-.22,1.59-.22,1.61-.45,3.28-.69,4.99-.05,.33-.09,.66-.14,.99-.14,.99-.28,2-.43,3.02-.16,1.1-.32,2.22-.48,3.35-.09,.62-.19,1.25-.28,1.89-.16,1.05-.32,2.12-.48,3.2-.16,1.09-.33,2.18-.5,3.29-.12,.73-.23,1.46-.34,2.2-.08,.48-.16,.97-.24,1.47-.16,1.01-.32,2.03-.49,3.06-.03,.23-.07,.45-.11,.67-.09,.53-.18,1.07-.26,1.61-.19,1.14-.38,2.29-.58,3.45-.26,1.53-.53,3.08-.8,4.62-.08,.47-.16,.93-.25,1.4-.11,.61-.22,1.22-.33,1.83-.16,.87-.32,1.76-.49,2.64-.13,.75-.27,1.49-.42,2.24-.25,1.35-.51,2.69-.78,4.03-.26,1.34-.53,2.68-.81,4.01,0,.02,0,.04-.01,.06-.27,1.31-.54,2.61-.82,3.91-.28,1.31-.57,2.61-.87,3.91-.26,1.15-.52,2.29-.79,3.42-.02,.11-.05,.22-.08,.33-.32,1.35-.65,2.69-.98,4.01-.22,.87-.44,1.74-.67,2.6-.18,.73-.37,1.45-.57,2.16-.32,1.18-.64,2.33-.97,3.47-.17,.61-.35,1.21-.53,1.81-.38,1.25-.76,2.48-1.14,3.68-.39,1.2-.78,2.37-1.18,3.51-.39,1.14-.8,2.25-1.21,3.32-.21,.53-.41,1.06-.62,1.58-.21,.51-.42,1.02-.63,1.52,.07-5.71-19.3-64.38-20.51-68.01,0-.03-.01-.06-.02-.08-.01-.03-.02-.07-.03-.1-.3-1.19-.48-1.88-.48-1.88,0,0-.07-.9-.12-2.48-.21-7.29,.06-28.96,9.83-42.51,7.44-10.31,12.32-14.35,15.96-15.71,2.19-.81,3.93-.66,5.52-.33,4.23,.89,15.14,2.89,12.92,15.59Z"/>
    <path class="cls-4" d="M274.54,110.36c-.41,4.59-1.12,10.72-1.51,15.39,0,0-.01,.04-.02,.12-.01,.06-.01,.13-.02,.19-.02,.13-.04,.28-.06,.47-.02,.09-.03,.19-.04,.3-.09,.67-.22,1.6-.39,2.7-.02,.14-.04,.28-.06,.43-.1,.68-.22,1.43-.35,2.2-.03,.22-.07,.45-.11,.68-.09,.56-.19,1.13-.3,1.7-.04,.26-.09,.52-.14,.78-.15,.85-.32,1.68-.49,2.49-.03,.13-.06,.26-.09,.39-.03,.17-.07,.34-.11,.5-.04,.19-.09,.38-.13,.57-.46,1.93-.96,3.57-1.47,4.48-.03,.06-.07,.12-.1,.17-.11,.17-.21,.31-.32,.41-.06,.06-.13,.11-.19,.14s-.13,.06-.2,.06c-4.5-6.24-12.95-12.81-28.68-13.51-30.7-1.37-159.76-.12-171.14,1.11l-11.39,1.23h.01s.02-.03,.03-.04c.01-.02,.03-.03,.05-.05,.16-.18,.56-.6,1.13-1.19h.01c.53-.3,13.02-6.7,20.14-9.39,7.26-2.75,14.91-4.32,15.5-8.44,.59-4.12,16.48-8.18,20.02-8.99,3.53-.82,15.81-7.82,15.81-7.82,1.75-.21,3.26-.33,4.46-.33,3.36,0,8.71-.02,14.6-.04,1.61-.01,3.26-.01,4.92-.02,9.47-.03,19.28-.04,23.93,.06,8.44,.18,78.1,1.98,78.1,1.98,0,0,7-.53,12.49,.71,3.11,.69,5.74,1.96,6.34,4.21,.2,.74,.05,3.18-.23,6.35Z"/>
    <path class="cls-5" d="M129.93,97.44s-12.28,7-15.81,7.82c-3.54,.81-19.43,4.87-20.02,8.99-.59,4.12-8.24,5.69-15.5,8.44-7.12,2.69-19.61,9.09-20.14,9.38,.16-.17,.34-.35,.53-.55,.15-.16,.32-.33,.49-.51,.19-.2,.39-.41,.61-.63,.16-.17,.32-.34,.49-.51,4.01-4.13,10.68-10.77,14.39-13.33,.15-.11,.3-.21,.45-.3,.14-.09,.28-.18,.41-.25,.13-.08,.26-.15,.38-.21,1.63-.81,3.03-1.69,4.43-2.64,0,0,.37,.22,.9-.62,2.34-1.61,4.82-3.4,8.5-5.35,.91-.48,2.74-1.15,5.17-1.91,3.75-1.18,8.94-2.57,14.39-3.87,.03,.05,.15,.24,.32-.08,7.12-1.7,14.66-3.22,20.01-3.87Z"/>
    <path class="cls-2" d="M273.42,155.99c-.15-.94-1.1-6.08-4.98-11.46,.07,0,.14-.03,.2-.06s.13-.08,.19-.14c.11-.1,.21-.24,.32-.41,.03-.05,.07-.11,.1-.17,.51-.91,1.01-2.55,1.47-4.48,.04-.19,.09-.38,.13-.57,.04-.16,.08-.33,.11-.5,.03-.13,.06-.26,.09-.39,.17-.81,.34-1.64,.49-2.49,.05-.26,.1-.52,.14-.78,.11-.57,.21-1.14,.3-1.7,.04-.23,.08-.46,.11-.68,.13-.77,.25-1.52,.35-2.2,.02-.15,.04-.29,.06-.43,.17-1.1,.3-2.03,.39-2.7,.01-.11,.02-.21,.04-.3,.02-.19,.04-.34,.06-.47-.21,2.74-.33,4.94-.19,5.97,.33,2.6,.66,13.16,.62,23.96Z"/>
    <path class="cls-4" d="M76.35,93.7c-8.45-.39-18.05-7.87-18.24-1.92-.19,5.95,4.8,21.5,3.65,27.84-1.13,6.23-4.42,13.51-4.52,13.73h-.01s-8.89-32.76-24.05-45.05c-3.28-2.66-6.33-4.26-9.12-5.13,0,0,14.04-1.45,18.89-.85,4.84,.6,5.65-9.22,7-16.22,1.34-7,7-4.84,12.31-5.92,5.31-1.08,0-15.57,0-15.57,5.64,5.01,10.53,10.99,12.4,15.84,2.23,5.77,5.48,16,7.45,25.64h0c.12,.59,.23,1.17,.34,1.74,.01,.02,.01,.04,.01,.06,.24,2.33-.28,6.07-6.12,5.81Z"/>
    <path class="cls-4" d="M83.68,103.21c-.7,5.9-1.53,8.33-2.14,9.31-.3,.21-.6,.41-.9,.62-1.4,.95-2.8,1.83-4.43,2.64-.12,.06-.25,.13-.38,.21-.13,.07-.27,.16-.41,.25-.15,.09-.3,.19-.45,.3-3.71,2.56-10.38,9.2-14.39,13.33-.17,.17-.33,.34-.49,.51-.22,.22-.42,.43-.61,.63-.17,.18-.34,.35-.49,.51-.19,.2-.37,.38-.53,.55h-.01c-.57,.6-.97,1.02-1.13,1.2-.02,.02-.04,.03-.05,.05-.01,.01-.02,.02-.03,.03,.1-.22,3.39-7.5,4.52-13.73,1.15-6.34-3.84-21.89-3.65-27.84,.19-5.95,9.79,1.53,18.24,1.92,5.84,.26,6.36-3.48,6.12-5.81,1.1,5.83,1.68,11.32,1.21,15.32Z"/>
    <path class="cls-2" d="M274.77,104.01c-.6-2.25-3.23-3.52-6.34-4.21,3.71-3.23,.73-27.67,.73-31.19s-.76-9.63,0-18.2c.75-8.39,4.54-41.92,4.69-43.24,.04,2.25,.13,6.65,.15,11.11h0c.03,4.37,0,8.78-.19,11.29-.3,4.22-.21,34.96,.2,55.67h0c.19,9.77,.44,17.29,.76,18.77Z"/>
    <path class="cls-3" d="M457.41,132.14s2.19-11.09-1.79-11.02c-3.97,.07-8.17-12.22-19.31-12.07-11.14,.16-16.57-9.72-16.57-9.72,6.97,.76,13.38,1.67,18.68,2.62,5.58,.99,9.93,2.01,12.41,2.9,.6,.21,1.26,.48,1.98,.8,2.89,1.27,6.67,3.32,10.79,5.84,.01,.02,.02,.02,.02,.02,9.81,5.98,21.56,14.56,27.83,21.36,0,0-13.93-.32-34.04-.73Z"/>
    <path class="cls-2" d="M436.38,84.8c-.51,13.42,2.04,17.15,2.04,17.15-5.3-.95-11.71-1.86-18.68-2.62-4.97-.55-10.22-1.02-15.54-1.35,7.57-.34,13.52-5.98,20.05-5.86,6.53,.11,3.55-15.14,7.79-20.03,4.25-4.88,6.88-17.36,6.88-22.52s.58-5.27,3.1-11.81c2.52-6.53,8.63-14.55,8.63-14.55-.62,1.35-1.19,2.79-1.7,4.32-4.76,14.44-12.06,43.84-12.57,57.27Z"/>
    <path class="cls-2" d="M403.57,36.68c-1.25,5.98-3.51,51.96-3.25,61.08-3.34-.17-6.68-.28-9.99-.33-28.46-.4-99.24,2.17-105.94,2.17s-9.62,4.41-9.62,4.41c-.32-1.48-.57-9-.76-18.76,.23,1.69,.73,3.12,1.46,4.32,.05,.07,.09,.15,.15,.22h0s.04,.08,.08,.12c.06,.11,.14,.22,.22,.32,.07,.1,.14,.21,.23,.3,.15,.2,.31,.38,.48,.56,.11,.12,.22,.24,.34,.34,.02,.03,.03,.04,.05,.05,.01,.02,.03,.04,.04,.04h.01c.12,.13,.24,.23,.36,.33,.38,.33,.78,.62,1.21,.88,.12,.09,.24,.16,.36,.22,.46,.28,.95,.52,1.46,.73,.16,.08,.32,.14,.49,.2,.15,.06,.3,.12,.46,.17,.11,.04,.21,.08,.32,.11,.51,.17,1.04,.31,1.58,.44,.21,.05,.42,.1,.64,.14,.26,.05,.52,.1,.79,.15,.33,.06,.68,.11,1.02,.15,.04,.01,.07,.01,.1,.01,.35,.05,.69,.09,1.05,.12,.07,0,.14,.01,.22,.02,.36,.03,.72,.05,1.09,.07,.4,.03,.8,.04,1.21,.05,.41,.01,.82,.02,1.24,.02,10.23,0,22.4-3.11,28.01-2.72,10.26,.71,43.47-2.14,49.03-2s6.55-9.83,18.38-8.27c11.83,1.57,2.28-9.97,7.27-16.53,4.99-6.55,7.13-8.55,6.94-18.53-.18-9.66,4.38-23.62,4.66-24.47-.39,5.77-.88,11.4-1.39,13.87Z"/>
    <path class="cls-7" d="M274.01,85.24s0-.03,0-.05"/>
    <path class="cls-4" d="M457.41,132.14c-45.55-.94-122.81-2.37-141.63-1.72-9.87,.34-18.16,3.84-24.72,8.15,0,0-9.06-5.23-11.86-8.37-2.8-3.15-4.66-19.84-4.66-19.84,.28-3.17,.43-5.61,.23-6.35,0,0,2.92-4.41,9.62-4.41s77.48-2.57,105.94-2.17c3.31,.05,6.65,.16,9.99,.33,1.29,.06,2.58,.14,3.86,.22h.02c5.32,.33,10.57,.8,15.54,1.35,0,0,5.43,9.88,16.57,9.72,11.14-.15,15.34,12.14,19.31,12.07,3.98-.07,1.79,11.02,1.79,11.02Z"/>
    <path class="cls-1" d="M291.06,138.57c-11.46,7.54-17.62,17.57-17.62,17.57,0,0,0-.04-.02-.11v-.04c.04-10.8-.29-21.36-.62-23.96-.14-1.03-.02-3.23,.19-5.97,0-.06,0-.13,.02-.19,.01-.08,.02-.12,.02-.12,.39-4.67,1.1-10.8,1.51-15.39,0,0,1.86,16.69,4.66,19.84,2.8,3.14,11.86,8.37,11.86,8.37Z"/>
    <path class="cls-2" d="M495.51,37.02c-3.41,1.26-6.78,2.97-9.81,5.27-1.08,.82-2.12,1.71-3.11,2.68-14.01,13.83-22.06,47.91-20.92,56.98,1.03,8.22,1.8,9.39,1.93,9.54-4.12-2.52-7.9-4.57-10.79-5.84,0,0-1.55-12.17,1.29-18.73,2.83-6.55-1.24-16.66,4.07-18.61,5.32-1.95,10.64-3.72,10.46-12.58-.18-8.87-4.43-18.54,2.13-22.21,.13-.07,.26-.14,.38-.2,.03-.02,.05-.03,.07-.03,.14-.07,.28-.14,.42-.2,.42-.19,.83-.34,1.24-.45,.13-.04,.27-.07,.4-.1,.13-.03,.26-.06,.4-.08,.13-.03,.26-.05,.39-.06,.13-.02,.26-.04,.39-.04,.11-.01,.22-.02,.32-.02,4.53-.17,8.04,3.45,11.23,3.18,4.08-.36,9.51,1.5,9.51,1.5Z"/>
    <path class="cls-4" d="M281.93,80.16s-1.1,3.24-3.79,4.69c-2.59,1.4-2.53,4.68-2.52,4.94-.06-.07-.1-.15-.15-.22-.73-1.2-1.23-2.63-1.46-4.32h0c-.41-20.72-.5-51.46-.2-55.68,.18-2.51,.22-6.92,.19-11.28,.09,.43,2.9,13.88,2.68,18.4-.22,4.58-1.65,10.05,.01,11.51,1.67,1.45-.12,12.74,.77,15.08,.9,2.35,2.57,7.71,1.68,11.07-.9,3.35,2.79,5.81,2.79,5.81Z"/>
    <path class="cls-5" d="M474.77,32.34c-.1,0-.21,.01-.32,.02-.13,0-.26,.02-.39,.04-.13,.01-.26,.03-.39,.06-.13,.02-.27,.04-.4,.08-.13,.03-.27,.06-.4,.1-.41,.11-.82,.26-1.24,.45-.14,.06-.28,.12-.42,.2-.02,0-.04,.01-.07,.03-.13,.05-.25,.12-.38,.2-6.56,3.67-2.31,13.34-2.13,22.21,.18,8.86-5.14,10.63-10.46,12.58-5.31,1.95-1.24,12.06-4.07,18.61-2.84,6.56-1.29,18.73-1.29,18.73-.72-.32-1.38-.59-1.98-.8-2.48-.89-6.83-1.91-12.41-2.9,0,0-2.55-3.73-2.04-17.15,.51-13.43,7.81-42.83,12.57-57.27,.51-1.53,1.08-2.97,1.7-4.32,1.48-3.2,3.22-5.88,4.97-8.07,1.15-1.45,2.29-2.68,3.37-3.72h.01c.6-.59,1.18-1.11,1.72-1.57,.36-.03,8.08,.75,10.79,3.46s-8.38,5.93-6.26,7.17c2.12,1.24,9.57-1.02,11.09,2.73,1.52,3.76-1.57,9.13-1.57,9.13Z"/>
    <path class="cls-6" d="M52.46,217.79l-1.89,5.21h-11.38v-6.03c3.61,.39,8.29,.65,13.27,.82Z"/>
    <path class="cls-6" d="M510.52,215.57l-.67,6.95h-12.35l-2.6-6.36c.72-.01,1.3-.01,1.72-.01,5.99,.02,10.72-.28,13.9-.58Z"/>
    <path class="cls-3" d="M111.53,84.41c-.55,12.94-1.22,16.18-1.61,16.9-.11,.03-.21,.05-.32,.08h0s-1.55-17.5-1.81-28.59c-.26-10.75-7.67-46.62-8.13-48.84,.17,.49,.32,1.01,.45,1.54,2.81,11.26,12.24,39.38,11.42,58.91Z"/>
    <path class="cls-2" d="M148.99,97.07c-5.89,.02-11.24,.04-14.6,.04-1.2,0-2.71,.12-4.46,.33-5.35,.65-12.89,2.17-20.01,3.87,.39-.72,1.06-3.96,1.61-16.9,.82-19.53-8.61-47.65-11.42-58.91-.13-.53-.28-1.05-.45-1.54-.01-.04-.02-.06-.02-.08,.01,0,0-.02-.01-.03-.45-1.43-1-2.73-1.61-3.91,9.72,12.91,8.09,15.13,13.56,27.4,5.46,12.28,6.81,26.07,7.72,34.1,.9,8.04,4.69,11.07,14.24,8.95,9.55-2.13,9.7-12.13,10.4-26.53,.39-8.03,.34-24.86,.23-38.18-.01-.61-.01-1.21-.02-1.81-.02-1.71-.03-3.34-.05-4.88-.01-.64-.01-1.27-.02-1.88-.02-1.53-.04-2.93-.05-4.18-.01-.38-.01-.74-.02-1.09v-.15c0-.31-.01-.6-.01-.88,0-.71-.02-1.33-.03-1.87,.22,2.91,6.06,83.62,5.02,88.13Z"/>
    <path class="cls-7" d="M516.71,211.48v-.02"/>
    <path class="cls-5" d="M515.1,215.02s-1.61,.27-4.58,.55c-3.18,.3-7.91,.6-13.9,.58-.42,0-1,0-1.72,.01-19.01,.1-137.76,2.01-171.95,1.87-35.48-.15-45.98-.15-49.23-1.48,0,0-1.47-30.56-.69-44.1,.27-4.73,.38-10.61,.39-16.42,.02,.07,.02,.11,.02,.11,0,0,6.16-10.03,17.62-17.57,6.56-4.31,14.85-7.81,24.72-8.15,18.82-.65,96.08,.78,141.63,1.72,20.11,.41,34.04,.73,34.04,.73,1.96,2.12,3.42,4.4,4.1,6.04,.05,1.58,.12,2.48,.12,2.48,0,0,.18,.69,.48,1.88,.01,.03,.02,.07,.03,.1,.01,.02,.02,.05,.02,.08,.08,.3,.16,.63,.25,.99,.02,.08,.04,.17,.06,.26,.01,.04,.02,.09,.03,.13,.01,.04,.02,.07,.03,.11,.01,.03,.01,.06,.02,.09,.03,.09,.05,.17,.07,.26,.01,.05,.02,.1,.03,.15,.02,.07,.04,.15,.06,.23,.02,.08,.04,.17,.06,.26,.01,.03,.02,.07,.03,.1,.04,.17,.08,.34,.12,.51,.05,.21,.1,.43,.15,.65,.02,.07,.04,.15,.06,.23,.03,.14,.07,.29,.1,.44,.03,.1,.05,.21,.08,.32,.15,.61,.3,1.26,.45,1.93,.11,.47,.22,.96,.33,1.46,.07,.29,.14,.59,.2,.89,.17,.76,.34,1.53,.51,2.33,.19,.9,.38,1.83,.57,2.76,.12,.58,.24,1.17,.35,1.75,.11,.59,.23,1.18,.34,1.77,.03,.2,.07,.4,.11,.61,.11,.63,.22,1.27,.33,1.9,.02,.12,.04,.24,.06,.36,.07,.4,.13,.79,.19,1.19,.06,.31,.11,.62,.15,.93,.02,.12,.04,.23,.05,.34,.02,.08,.03,.16,.04,.24,.07,.5,.14,.99,.21,1.48,1.56,11.59,13.86,46.9,13.86,46.9Z"/>
  </g>
</svg>