<?xml version="1.0" encoding="UTF-8"?>
<svg id="Layer_2" data-name="Layer 2" xmlns="http://www.w3.org/2000/svg" viewBox="0 0 528.82 206.14">
  <defs>
    <style>
      .cls-1, .cls-2 {
        fill: #c48c63;
      }

      .cls-3 {
        fill: #401409;
      }

      .cls-4 {
        fill: #974e26;
      }

      .cls-5 {
        fill: #2c190c;
      }

      .cls-6 {
        fill: #e5c4a5;
      }

      .cls-6, .cls-2 {
        stroke: #974e26;
        stroke-miterlimit: 10;
      }
    </style>
  </defs>
  <g id="PEN">
    <g>
      <rect class="cls-5" x="148.34" y="6.42" width="244.62" height="117.46"/>
      <path class="cls-3" d="M528.81,165.81c-.26,3.36-3.51,3.41-3.51,3.41H2.62s-2.62-.71-2.62-3.95,2.53-3.95,2.53-3.95H525.3s3.77,1.14,3.51,4.49Z"/>
      <path class="cls-2" d="M527.55,145.61c-.07,15.7-2.24,15.71-2.25,15.71h-19.81V51.13c0-2,.46-3.32,1.08-4.19,1.29-1.81,3.28-1.68,3.28-1.68h13.6c4.14,0,4.1,6.46,4.1,6.46,0,0,.07,78.18,0,93.89Z"/>
      <path class="cls-2" d="M505.49,98.62v29.13c-39.43-.15-103.37,0-103.37,0h-60.98s1.03-1.11,.81-4.35c-.22-3.24-.81-23.13-.81-23.13,0,0,13.62-1.17,48.79-.22,35.18,.95,115.56-1.43,115.56-1.43Z"/>
      <path class="cls-2" d="M20.2,56.03v105.29H2.53V53.99s-.04-4.47,2.19-4.47,13.43,1.64,13.43,1.64c0,0,.16,.02,.4,.15,.59,.34,1.65,1.4,1.65,4.72Z"/>
      <path class="cls-5" d="M67.62,169.22l-20.56,35.21s-3.02,.83-5.74,.73c-2.71-.11-3.75-1.88-3.75-1.88l13.04-34.06h17.01Z"/>
      <path class="cls-5" d="M488.87,205.4s-1.46,.84-4.59,.73c-3.14-.1-4.7-.52-4.7-.52l-21.52-36.39h17.13l13.68,36.18Z"/>
      <path class="cls-6" d="M523.45,45.26h-13.6s-1.99-.13-3.28,1.68l-25.9-11.49c-.09-1.66-.13-2.62-.13-2.62h5.79c2.89,0,5.79,.79,5.79,.79l31.33,11.64Z"/>
      <line class="cls-1" x1="480.67" y1="35.45" x2="480.54" y2="35.39"/>
      <path class="cls-2" d="M180.51,128.56c-1.86,2.04-15.71,1.81-37.55,2.18-21.83,.36-65.89-.84-70.93-.77-5.04,.06-46.41,.83-48.71,.76-2.3-.06-3.12-2.17-3.12-2.17v-25.6s65.16-.91,99.51,.52c34.36,1.44,59.18-2.22,59.18-2.22,0,0,.21,16.43,.43,21.7,.22,5.27,1.19,5.6,1.19,5.6Z"/>
      <path class="cls-2" d="M341.14,127.75c-9.52,1.27-25.78,1.5-39.2,1.81-36.13,.85-87.03,.64-95.22,.52-10.34-.15-26.21-1.52-26.21-1.52,0,0-.97-.33-1.19-5.6-.22-5.27-.43-21.7-.43-21.7,0,0,53.47,1.6,76.19,1.08,22.72-.51,77.62,2.01,86.06-2.07,0,0,.59,19.89,.81,23.13,.22,3.24-.81,4.35-.81,4.35Z"/>
      <path class="cls-4" d="M174.26,132.3c-8.12,.78-39.52,.48-44.68,.8-5.16,.32-29.5,.21-35.93-.11-6.43-.31-21.49-.1-32.45,.48-10.96,.58-26,.47-32.28,0-3.52-.26-4.85-1.09-5.35-1.77-.38-.53-.25-.97-.25-.97,2.3,.07,43.67-.7,48.71-.76,5.04-.07,49.1,1.13,70.93,.77,21.84-.37,35.69-.14,37.55-2.18,0,0,.01,.01,.02,.04,.94,2.76,1.8,2.92-6.27,3.7Z"/>
      <path class="cls-6" d="M184.76,92.36c-5.41,4.33-5.87,8.9-5.87,8.9,0,0-24.82,3.66-59.18,2.22-34.35-1.43-99.51-.52-99.51-.52v-2.24c4.79-8.59,22.04-14.8,22.04-14.8,0,0,12.76-4.92,29.14-4.92s70.13,1.37,70.13,1.37c0,0,27.81,.45,33.61,3.55,3.88,2.07,6.88,4.25,8.44,5.47,.78,.6,1.2,.97,1.2,.97Z"/>
      <path class="cls-2" d="M188.3,14.11c-1.36,1.81,1.08,8.58-.82,15.27-1.9,6.69,.72,18.71,0,20.97-.72,2.26-.86,15.27-.7,16.9,.16,1.62-.2,7.68-1.38,9.12-1.17,1.45-.27,2.8,0,3.35,.27,.54,2.2,7.07-1.84,11.67-1.56-1.22-4.56-3.4-8.44-5.47-5.8-3.1-33.61-3.55-33.61-3.55,0,0-53.75-1.37-70.13-1.37s-29.14,4.92-29.14,4.92l2.56-45.98,.21-3.86s-.68-21.99,.8-25.04c1.49-3.06-.74-3.88,.33-5.7,1.08-1.82,3.47-4.46,4.79-3.3,1.32,1.15,4.62,.59,5.2-.28,.58-.88,2.89-.78,6.69,0,3.8,.77,8.83,1.02,9.57,.03,.75-.99,35.34-1.8,43.1-.65s52.75,1.06,56.05-.01,15.87,.25,17.2,5.48c0,0,.91,5.69-.44,7.5Z"/>
      <path class="cls-6" d="M341.14,100.27c-8.44,4.08-63.34,1.56-86.06,2.07-22.72,.52-76.19-1.08-76.19-1.08,0,0,.46-4.57,5.87-8.9,0,0,.9-.86,2.35-2.03,2.7-2.19,7.29-5.48,11.31-6.23,5.01-.94,28.12-1.08,28.12-1.08,0,0,38.77-1.36,43.87-.94,5.1,.43,40.29-.65,52.32,4.13,5.83,2.32,9.12,3.92,10.97,4.96,1.96,1.11,2.29,1.58,2.29,1.58,0,0,2.37,2.65,3.91,3.99,1.55,1.33,1.24,3.53,1.24,3.53Z"/>
      <path class="cls-2" d="M333.7,91.17c-1.85-1.04-5.14-2.64-10.97-4.96-12.03-4.78-47.22-3.7-52.32-4.13-5.1-.42-43.87,.94-43.87,.94,0,0-23.11,.14-28.12,1.08-4.02,.75-8.61,4.04-11.31,6.23,0,0-1.24-7.3-.37-8.33,.86-1.04,.37-11.32,.37-11.32,0,0,1.35-10.89,1.44-12.53,.09-1.65,.46-6.14,.49-8.39,.03-2.24-.66-6.13-.4-7.51,.26-1.39,.89-11.24,.4-12.45s.18-4.49,.18-4.49c0,0,.76-1.99,0-4.23-.76-2.25-.92-6.97-.92-6.97,1.35-1.81,.44-7.5,.44-7.5,0,0,1.86-3.99,5.85-3.72,3.99,.26,34.04-.8,40.06,.09,6.03,.88,36.69-.54,44.14-.27,7.44,.27,45.2-1.24,51.23,.71,0,0,1.77,.62,2.57,3.01,0,0,1.44,4.24,0,6.58-1.44,2.35-.49,4.35,0,5.28,.48,.93,.76,38.7-.07,41.59-.82,2.9,1.09,15.93,.45,18.05s-1.4,5.01-.45,5.39c.96,.39,4.29,5.37,1.18,7.85Z"/>
      <path class="cls-6" d="M505.49,96.23v2.39s-80.38,2.38-115.56,1.43c-35.17-.95-48.79,.22-48.79,.22,0,0,.31-2.2-1.24-3.53-1.54-1.34-3.91-3.99-3.91-3.99,0,0,.78-1.3,2.45-2.85,2.03-1.9,5.38-4.16,10.2-4.84,8.75-1.24,28.12-3.78,32.63-4.06s60.79-.57,72.95-.75c12.16-.17,30.14,4.14,30.14,4.14,0,0,13.72,3.42,21.13,11.84Z"/>
      <path class="cls-4" d="M506.57,46.94c-.62,.87-1.08,2.19-1.08,4.19v45.1c-7.41-8.42-21.13-11.84-21.13-11.84-1.46-4.73-3.22-39.12-3.69-48.94l25.9,11.49Z"/>
      <path class="cls-2" d="M484.36,84.39s-17.98-4.31-30.14-4.14c-12.16,.18-68.44,.47-72.95,.75s-23.88,2.82-32.63,4.06c-4.82,.68-8.17,2.94-10.2,4.84,0,0-3.94-2.19-4.14-5.88-.21-3.69,.7-4.72,.7-4.72,0,0,.5-1.33,0-4.2-.5-2.87-.73-9.03,0-11.59,.73-2.57-.66-5.23-.73-7.39-.08-2.15,.92-5.1,.73-7.32s-.57-5.6-.74-7.34c-.17-1.75,0-12.82,0-12.82,0,0,.44-9.14-.4-10.51-.83-1.38-.92-3.76-.35-5.32,.56-1.57,2.23-2.96,2.02-4.3-.21-1.32-2.16-2.67-2.93-2.09,.09-.28,1.69-4.69,5.13-5.13,3.54-.44,41.65,.09,46.08,.18,4.43,.09,61.6,.09,65.05-.27,3.46-.35,15.6-.9,17.64-.63,2.04,.28,4.7,2.58,7.18,1.43,2.48-1.15,5.32,.98,5.32,2.39s2.57,9.84,2.04,13.12c-.54,3.28-2.49,13.89-.5,15.32,0,0,.04,.96,.13,2.62,.47,9.82,2.23,44.21,3.69,48.94Z"/>
      <path class="cls-1" d="M332.6,6.42s-.01,.01-.01,.01"/>
      <path class="cls-1" d="M332.6,6.42s-.01,.01-.01,.01"/>
      <path class="cls-2" d="M505.49,135.71v25.61H20.2v-25.61H505.49Z"/>
      <path class="cls-4" d="M334.17,131.01c-7.68,1.06-35.14,1.91-35.14,1.91,0,0-64.59,.53-68.1,.53s-39.71-.79-44.27-1.26c-4.28-.43-5.94-3.24-6.13-3.59-.01-.03-.02-.04-.02-.04,0,0,15.87,1.37,26.21,1.52,8.19,.12,59.09,.33,95.22-.52,13.42-.31,29.68-.54,39.2-1.81,0,0,0,.02,.01,.05,.05,.34,.01,2.24-6.98,3.21Z"/>
      <path class="cls-4" d="M505.49,127.75v1.41c-.43,.59-1.64,1.1-3.23,1.52-5.09,1.36-14.09,1.91-14.09,1.91,0,0-117.38,.52-118.42,.52s-23.68-.23-25.53-.47c-1.73-.22-2.92-4.32-3.07-4.84-.01-.03-.01-.05-.01-.05h60.98s63.94-.15,103.37,0Z"/>
      <path class="cls-3" d="M505.49,133.45v2.26H20.2l3.37-4.01c.5,.68,1.83,1.51,5.35,1.77,6.28,.47,21.32,.58,32.28,0,10.96-.58,26.02-.79,32.45-.48,6.43,.32,30.77,.43,35.93,.11,5.16-.32,36.56-.02,44.68-.8,8.07-.78,7.21-.94,6.27-3.7,.19,.35,1.85,3.16,6.13,3.59,4.56,.47,40.76,1.26,44.27,1.26s68.1-.53,68.1-.53c0,0,27.46-.85,35.14-1.91,6.99-.97,7.03-2.87,6.98-3.21,.15,.52,1.34,4.62,3.07,4.84,1.85,.24,24.49,.47,25.53,.47s118.42-.52,118.42-.52c0,0,9-.55,14.09-1.91,1.64,.64,3.23,2.77,3.23,2.77Z"/>
      <path class="cls-1" d="M502.26,130.68c-.09-.03-.17-.06-.26-.09"/>
      <path class="cls-4" d="M18.55,51.31l26.25-11.37-2.56,45.98s-17.25,6.21-22.04,14.8V56.03c0-3.32-1.06-4.38-1.65-4.72Z"/>
      <path class="cls-6" d="M4.72,49.52l13.83,1.79,26.25-11.37h0c.11-2.06-6.74-1.66-8.77-1.28-5.85,1.08-13.09,2.17-31.31,10.86Z"/>
    </g>
  </g>
</svg>